<svg width="13" height="13" viewBox="0 0 13 13" fill="none" xmlns="http://www.w3.org/2000/svg">
<path d="M12.5779 0C12.466 0 12.3586 0.0444685 12.2795 0.123623C12.2003 0.202778 12.1558 0.310136 12.1558 0.422078V3.03896H0.844156V0.422078C0.844156 0.310136 0.799687 0.202778 0.720532 0.123623C0.641377 0.0444685 0.53402 0 0.422078 0C0.310136 0 0.202779 0.0444685 0.123624 0.123623C0.0444688 0.202778 0 0.310136 0 0.422078L0 3.46104C0 3.57298 0.0444688 3.68034 0.123624 3.75949C0.202779 3.83865 0.310136 3.88312 0.422078 3.88312H12.5779C12.6899 3.88312 12.7972 3.83865 12.8764 3.75949C12.9555 3.68034 13 3.57298 13 3.46104V0.422078C13 0.310136 12.9555 0.202778 12.8764 0.123623C12.7972 0.0444685 12.6899 0 12.5779 0Z" transform="translate(0 9.1167)" fill="#231F20"/>
<path d="M3.16274 9.83779C3.18237 9.85729 3.20385 9.87482 3.2269 9.89013L3.25729 9.90701L3.29949 9.92896L3.3417 9.94247L3.37716 9.96104C3.43284 9.97265 3.49031 9.97265 3.54599 9.96104L3.58313 9.94922L3.62534 9.93571L3.66755 9.91377L3.69794 9.89688C3.72098 9.88157 3.74247 9.86404 3.76209 9.84455L6.80105 6.80558C6.8403 6.76634 6.87143 6.71975 6.89266 6.66848C6.9139 6.61721 6.92483 6.56225 6.92483 6.50675C6.92483 6.45126 6.9139 6.3963 6.89266 6.34503C6.87143 6.29375 6.8403 6.24717 6.80105 6.20792C6.76181 6.16868 6.71522 6.13755 6.66395 6.11631C6.61268 6.09507 6.55772 6.08414 6.50222 6.08414C6.44672 6.08414 6.39177 6.09507 6.3405 6.11631C6.28922 6.13755 6.24263 6.16868 6.20339 6.20792L3.88365 8.51922V0.422078C3.88365 0.310136 3.83918 0.202779 3.76003 0.123624C3.68087 0.0444688 3.57351 0 3.46157 0C3.34963 0 3.24227 0.0444688 3.16312 0.123624C3.08396 0.202779 3.03949 0.310136 3.03949 0.422078V8.52597L0.721442 6.20117C0.642187 6.12191 0.534695 6.07739 0.422611 6.07739C0.310528 6.07739 0.203035 6.12191 0.12378 6.20117C0.0445249 6.28042 -1.04782e-07 6.38792 -1.06991e-07 6.5C-1.09201e-07 6.61208 0.0445249 6.71958 0.12378 6.79883L3.16274 9.83779Z" transform="translate(3.03845)" fill="#231F20"/>
</svg>
