<svg width="29" height="25" viewBox="0 0 29 25" fill="none" xmlns="http://www.w3.org/2000/svg">
<path d="M27.6546 7.49659C27.6546 3.35627 24.311 -1.89135e-08 20.1865 -1.89135e-08C17.4932 -1.89135e-08 15.1412 1.43581 13.8272 3.58158C12.5134 1.43581 10.1604 -1.89135e-08 7.46719 -1.89135e-08C3.34267 -1.89135e-08 0 3.35627 0 7.49659C0 9.75076 0.995068 11.7674 2.56336 13.1408L13.1457 23.7641C13.3265 23.9456 13.5716 24.0475 13.8272 24.0475C14.0829 24.0475 14.328 23.9456 14.5087 23.7641L25.0911 13.1408C26.6594 11.7674 27.6546 9.75076 27.6546 7.49659Z" transform="translate(0.672852 0.0774536)" fill="#454545"/>
<path d="M27.6546 7.49659C27.6546 3.35627 24.311 -1.89135e-08 20.1865 -1.89135e-08C17.4932 -1.89135e-08 15.1412 1.43581 13.8272 3.58158C12.5134 1.43581 10.1604 -1.89135e-08 7.46719 -1.89135e-08C3.34267 -1.89135e-08 0 3.35627 0 7.49659C0 9.75076 0.995068 11.7674 2.56336 13.1408L13.1457 23.7641C13.3265 23.9456 13.5716 24.0475 13.8272 24.0475C14.0829 24.0475 14.328 23.9456 14.5087 23.7641L25.0911 13.1408C26.6594 11.7674 27.6546 9.75076 27.6546 7.49659Z" transform="translate(0.672852 0.0774536)" fill="url(#paint0_linear)"/>
<defs>
<linearGradient id="paint0_linear" x2="1" gradientUnits="userSpaceOnUse" gradientTransform="matrix(-21.6427 21.6427 -24.8892 -24.8892 40.7004 12.4446)">
<stop stop-color="#4A4A4A"/>
<stop offset="1" stop-color="white" stop-opacity="0"/>
</linearGradient>
</defs>
</svg>
