<svg width="45" height="45" viewBox="0 0 45 45" fill="none" xmlns="http://www.w3.org/2000/svg">
<path fill-rule="evenodd" clip-rule="evenodd" d="M12.1855 -6.05262e-08C16.4919 -6.05262e-08 20.2716 2.21897 22.453 5.60384C24.6155 2.21897 28.3953 -6.05262e-08 32.7016 -6.05262e-08C39.4338 -6.05262e-08 44.8872 5.45341 44.8872 12.1855C44.8872 14.7618 44.3042 17.3757 43.2888 19.9519H31.4981L28.621 11.5274C28.3577 10.7564 27.5115 10.3427 26.7217 10.6059C26.214 10.7752 25.8567 11.1889 25.7438 11.6778L22.1521 23.9574L18.2595 15.2319C17.921 14.4797 17.0372 14.1412 16.285 14.4797C15.9841 14.6114 15.7585 14.8182 15.608 15.0815L13.5959 18.504H1.07188C0.394902 16.3978 4.90374e-10 14.2729 4.90374e-10 12.1855C4.90374e-10 5.45341 5.45341 -6.05262e-08 12.1855 -6.05262e-08ZM41.8972 22.9607C37.873 30.4262 30.351 37.2712 22.453 41.4647C14.0284 36.9891 6.03636 29.5424 2.27539 21.5127H14.4609C14.9687 21.5127 15.4764 21.2495 15.7585 20.7606L16.7175 19.1057L21.0802 28.8842C21.2495 29.2791 21.588 29.58 22.0205 29.7117C22.8291 29.9373 23.6565 29.486 23.8822 28.6962L27.3046 16.9808L28.9783 21.8512C29.1475 22.4906 29.7305 22.9607 30.4262 22.9607H41.8972Z" transform="translate(0.0546875 1.76758)" fill="#333333"/>
</svg>
