<svg width="27" height="40" viewBox="0 0 27 40" fill="none" xmlns="http://www.w3.org/2000/svg">
<path d="M25.3816 20.6047C26.2071 24 22.7678 27.3488 19.3743 25.9535C16.5312 24.9302 15.4306 21.5814 17.4025 18.6977C21.8506 12.6977 18.5948 3.25581 11.2117 0C14.5593 6.4186 9.4233 12.3256 6.48843 14.7907C3.55357 17.2558 1.5817 19.814 0.985559 21.3023C-1.99516 28.6512 2.45299 35.6744 5.47957 37.3488C4.10385 34.1861 2.81985 28.1395 8.23101 22.4651C8.23101 22.4651 6.67186 28.5116 10.0653 32.6977C13.4587 36.8837 13.4129 40 13.4129 40C18.6865 40 23.6849 36.7907 25.7944 31.5349C27.3994 28.4186 27.5369 23.4884 25.3816 20.6047Z" fill="#333333"/>
</svg>
