<svg width="27" height="27" viewBox="0 0 27 27" fill="none" xmlns="http://www.w3.org/2000/svg">
<path d="M13.6946 1.48755C13.4373 1.58679 13.1577 1.64477 12.8696 1.64477H11.8105C11.2852 3.17994 10.4383 4.58871 9.3156 5.77562C9.5042 5.95156 9.68504 6.13409 9.85588 6.32548C11.8859 5.46406 13.3035 3.63264 13.6946 1.48755ZM11.1217 0C10.7227 0.234472 10.2628 0.378461 9.77023 0.378461H5.04225C5.02394 0.379347 5.00561 0.379422 4.98731 0.378461C3.20647 0.378573 1.5622 1.35428 0.669561 2.94371C-0.223134 4.53313 -0.223243 6.49135 0.669569 8.08066H0.672673C3.41241 8.27318 6.10907 7.30752 8.12807 5.40005C9.66386 3.94924 10.7008 2.05859 11.1217 0ZM13.9946 3.94844C13.604 4.68005 13.1019 5.33992 12.4992 5.90958C12.9906 6.33938 13.4225 6.82209 13.774 7.35678C13.9453 7.17126 14.1114 6.97165 14.2607 6.76177C14.5224 6.39387 14.7392 6.01787 14.8883 5.73693C14.9618 5.5981 14.9619 5.5903 15 5.51101C14.9615 5.43207 14.9603 5.42416 14.8865 5.28386C14.7369 5.00247 14.5207 4.62576 14.259 4.25889C14.1756 4.15062 14.0815 4.05603 13.9946 3.94844ZM11.9313 6.88925C11.8281 6.80015 11.7215 6.71241 11.6146 6.62602C11.286 6.85361 10.9391 7.05394 10.5723 7.22875C11.0434 7.89596 11.4288 8.61752 11.7263 9.37822H12.8696C13.1061 9.37822 13.3376 9.41888 13.5554 9.48767C13.253 8.50738 12.703 7.60913 11.9313 6.88925ZM8.91614 6.94225C8.78404 6.80782 8.64317 6.6804 8.50565 6.55003C6.55486 8.23576 4.10508 9.18554 1.56146 9.23381C2.47502 10.1252 3.69343 10.6449 4.98688 10.6448C5.00469 10.6439 5.02253 10.6439 5.04033 10.6448H9.7713C10.2466 10.6449 10.6894 10.7803 11.0784 11C10.7182 9.4849 9.98013 8.08089 8.91614 6.94225Z" transform="translate(8 21) rotate(-90)" fill="black"/>
</svg>
