<svg width="17" height="18" viewBox="0 0 17 18" fill="none" xmlns="http://www.w3.org/2000/svg">
<path d="M17 6.87749C17 3.07913 13.1949 0 8.50041 0C3.80589 0 0 3.07932 0 6.87749C0 8.5209 0.840418 9.7098 0.840418 9.7098C1.35357 10.4359 1.63221 11.3739 1.52777 11.9415C1.50561 12.0614 1.46273 12.2514 1.46273 12.3735C1.46273 12.4562 1.46273 12.5696 1.46273 12.7254C1.46273 14.0685 2.36285 15.1565 3.47329 15.1565C3.82087 15.1565 3.82087 15.1565 3.82087 15.1565C4.15757 14.995 4.43292 15.5972 4.43292 16.4954C4.43292 16.9448 4.6461 17.2428 4.98937 17.4283L5.13258 17.0369C5.19044 16.8784 5.37285 16.7545 5.54787 16.7545H5.84476C5.9847 16.7545 6.10493 16.8351 6.1593 16.95C6.2266 16.8343 6.3573 16.7545 6.49806 16.7545H6.95192C7.07256 16.7545 7.17864 16.8143 7.2406 16.9043C7.30893 16.8146 7.41931 16.7545 7.53852 16.7545H8.40213C8.49097 16.7545 8.5712 16.7877 8.63255 16.8406C8.69389 16.7875 8.77391 16.7545 8.86296 16.7545H9.66276C9.80371 16.7545 9.93257 16.8341 9.99843 16.9494C10.053 16.8345 10.1732 16.7545 10.313 16.7545H10.6825C10.8226 16.7545 10.9519 16.8331 11.0196 16.9472C11.0746 16.8337 11.194 16.7545 11.3323 16.7545H11.453C11.6278 16.7545 11.8104 16.8784 11.8682 17.0367L12.0108 17.4281C12.3543 17.2426 12.5671 16.9446 12.5671 16.4954C12.5671 15.598 12.843 14.995 13.1791 15.1565C13.1791 15.1565 13.1791 15.1565 13.5265 15.1565C14.6371 15.1565 15.5373 14.0685 15.5373 12.7254C15.5373 12.5696 15.5373 12.4562 15.5373 12.3735C15.5373 12.2514 15.4946 12.0612 15.4726 11.9411C15.3686 11.3737 15.6464 10.4359 16.16 9.7098C16.1598 9.7098 17 8.5209 17 6.87749ZM4.99593 12.9225C3.75911 12.9225 2.37824 12.6597 2.37824 10.9933C2.37824 9.92771 2.60681 9.42658 4.23902 9.42658C5.47585 9.42658 7.23527 9.92771 7.23527 10.9933C7.23527 12.0593 6.49129 12.9225 4.99593 12.9225ZM9.2249 14.9895C8.82624 14.6986 8.17356 14.6986 7.77489 14.9895C7.37623 15.2804 7.31919 14.7443 7.6483 13.7983L7.90149 13.0708C8.2306 12.1242 8.7694 12.1242 9.09831 13.0708L9.35129 13.7983C9.68102 14.7443 9.62377 15.2806 9.2249 14.9895ZM11.8834 12.9225C10.3883 12.9225 9.64449 12.0591 9.64449 10.9933C9.64449 9.92771 11.4041 9.42658 12.6405 9.42658C14.2732 9.42658 14.5013 9.92771 14.5013 10.9933C14.5013 12.6597 13.1207 12.9225 11.8834 12.9225Z" fill="black"/>
</svg>
