<svg width="49" height="43" viewBox="0 0 49 43" fill="none" xmlns="http://www.w3.org/2000/svg">
<path d="M8.91806 28C13.8718 28 18 24.0242 18 19.1178C18 17.9335 17.6697 16.6647 17.3395 15.565C17.3395 15.4804 17.2569 15.3958 17.2569 15.3112C16.9267 14.3807 16.4313 13.4502 15.9359 12.5196C15.1103 10.9124 14.1195 9.38973 13.1288 7.86707C12.8811 7.5287 12.716 7.19034 12.4683 6.93656C9.74368 2.70695 9.00061 0 9.00061 0C9.00061 0 8.25755 2.70695 5.53297 6.93656C5.03759 7.6133 4.62477 8.29003 4.21196 8.96677C3.38633 10.3202 2.56069 11.6737 1.81762 13.0272C1.07456 14.4653 0.331489 16.0725 0.0838001 17.6798C0.00123694 18.1027 0.00124169 18.6103 0.00124169 19.0332C-0.0813214 23.9396 3.96427 28 8.91806 28Z" transform="translate(22 15)" fill="#333333"/>
<path d="M42.7759 14.9037C45.4665 14.9037 47.6629 12.751 47.6629 10.1566C47.6629 9.54942 47.4982 8.83184 47.2785 8.27985C47.2785 8.22465 47.2236 8.16945 47.2236 8.16945C47.004 7.67266 46.7844 7.17587 46.5098 6.67908C46.0705 5.85109 45.5214 5.02311 44.9723 4.19512C44.8625 4.02952 44.7527 3.86393 44.6429 3.69833C43.1603 1.43517 42.7759 0 42.7759 0C42.7759 0 42.3915 1.43517 40.909 3.69833C40.6344 4.02953 40.4148 4.41592 40.1951 4.80231C39.7558 5.5199 39.2617 6.23748 38.8773 6.95507C38.4929 7.72786 38.0536 8.55584 37.9438 9.43902C37.8889 9.65982 37.8889 9.93581 37.8889 10.1566C37.8889 12.751 40.0853 14.9037 42.7759 14.9037ZM11.0927 23.3492C10.7083 23.9564 10.324 24.5635 9.99449 25.1707C9.66503 25.8331 9.33557 26.5507 9.17084 27.2683C9.11593 27.4891 9.11593 27.6547 9.11593 27.8755C9.11593 30.0834 10.9829 31.905 13.2891 31.905C15.5953 31.905 17.4623 30.0834 17.4623 27.8755C17.4623 27.3787 17.3525 26.7715 17.1328 26.2747C17.1328 26.2195 17.1328 26.2195 17.0779 26.1643C16.9132 25.7227 16.6935 25.3363 16.4739 24.8947C16.0895 24.1771 15.6502 23.5148 15.211 22.7972C15.1011 22.6316 14.9913 22.5212 14.9364 22.3556C13.6735 20.4788 13.344 19.2644 13.344 19.2644C13.344 19.2644 13.0146 20.4788 11.7516 22.3556C11.4771 22.742 11.2574 23.018 11.0927 23.3492ZM5.93113 18.2709C9.22575 18.2709 11.9713 15.6765 11.9713 12.475C11.9713 11.7022 11.7516 10.8742 11.532 10.1566C11.532 10.1014 11.4771 10.0462 11.4771 9.99101C11.2574 9.38383 10.928 8.77664 10.5985 8.16945C10.0494 7.12067 9.39048 6.12709 8.73155 5.13351C8.56682 4.91271 8.457 4.69191 8.29227 4.52632C6.48023 1.76637 5.98604 0 5.98604 0C5.98604 0 5.49185 1.76637 3.67981 4.52632C3.35035 4.96791 3.0758 5.4095 2.80125 5.85109C2.25215 6.73427 1.70304 7.61746 1.20885 8.50064C0.714659 9.43902 0.220467 10.4878 0.0557361 11.5366C0.000825867 11.8126 0.000825808 12.1438 0.000825808 12.4198C-0.0540844 15.6213 2.63652 18.2709 5.93113 18.2709Z" transform="translate(0.37207)" fill="#333333"/>
</svg>
